<?xml version="1.0" encoding="UTF-8"?>
<!-- Generator: visioncortex VTracer -->
<svg id="svg" version="1.1" xmlns="http://www.w3.org/2000/svg" style="display: block;" viewBox="0 0 211 267"><path d="M0 0 C69.63 0 139.26 0 211 0 C211 88.11 211 176.22 211 267 C141.37 267 71.74 267 0 267 C0 178.89 0 90.78 0 0 Z " transform="translate(0,0)" style="fill: #B1F0BA;"/><path d="M0 0 C69.63 0 139.26 0 211 0 C211 88.11 211 176.22 211 267 C141.37 267 71.74 267 0 267 C0 178.89 0 90.78 0 0 Z M31 29 C23.09251632 40.49265636 21.55172736 51.81645365 21.62768555 65.44873047 C21.62525313 66.98736822 21.62152945 68.52600438 21.61662292 70.06463623 C21.60727032 74.21769545 21.61659254 78.37051665 21.62995505 82.52355719 C21.64133528 86.88745976 21.63715688 91.25135173 21.63520813 95.61526489 C21.63432704 102.94358164 21.64536527 110.27180557 21.66381836 117.60009766 C21.6849673 126.04681949 21.68849806 134.49340529 21.6822564 142.94014823 C21.67654077 151.09548399 21.68223524 159.25077231 21.69342995 167.40610123 C21.69804852 170.86272187 21.69896173 174.31931325 21.6968441 177.77593613 C21.69494583 181.85541775 21.70318198 185.93476302 21.7189045 190.01421356 C21.72310942 191.50240388 21.72402382 192.99060813 21.72121429 194.47880173 C21.69875129 208.51795196 22.00488798 223.39866315 32.04296875 234.30078125 C41.65234933 242.64425541 51.90936185 245.2374041 64.2890625 245.4140625 C65.16997055 245.43356461 66.0508786 245.45306671 66.95848083 245.47315979 C69.84722559 245.5337714 72.73596938 245.58021826 75.625 245.625 C77.65942625 245.66173124 79.69385004 245.69859889 81.72827148 245.7355957 C88.15195128 245.84575779 94.57578948 245.92794533 101 246 C102.06176453 246.01202454 103.12352905 246.02404907 104.21746826 246.03643799 C110.49990683 246.10398335 116.78212189 246.15133836 123.06488037 246.17523193 C125.02750117 246.18326416 126.99011261 246.19425831 128.95269775 246.20855713 C139.1504823 246.27540542 149.24937054 246.05276659 159.41015625 245.12890625 C160.26545425 245.0532695 161.12075226 244.97763275 162.00196838 244.89970398 C173.3551104 243.74802798 182.79995727 240.06873004 190.421875 231.37890625 C196.3253793 223.86061989 198.11371885 214.58202379 198.14717102 205.21543884 C198.15084771 204.54584737 198.1545244 203.87625589 198.1583125 203.18637377 C198.16929777 200.94968074 198.1731844 198.71303426 198.17700195 196.47631836 C198.18327062 194.86945449 198.18991778 193.26259206 198.19691467 191.6557312 C198.21791374 186.3837789 198.22831484 181.11182646 198.23828125 175.83984375 C198.2423307 174.02084399 198.24644767 172.20184438 198.25063133 170.38284492 C198.26967579 161.83345728 198.28390702 153.28407821 198.2922433 144.73467344 C198.30200594 134.88658375 198.32830313 125.0387194 198.36874419 115.19070905 C198.39897424 107.56585346 198.41371879 99.94106219 198.41702431 92.31614786 C198.41936739 87.76841727 198.4282304 83.22092761 198.45348549 78.67326164 C198.47689144 74.38941228 198.48094957 70.10596036 198.47072411 65.82206345 C198.47023163 64.25806793 198.47646626 62.694052 198.49028015 61.13011742 C198.59284244 48.82024382 197.29023951 37.65949406 189.0390625 27.96875 C177.03103956 16.37479682 160.44321178 15.87090283 144.68603516 15.82299805 C143.72020004 15.81642685 142.75436493 15.80985565 141.75926208 15.80308533 C138.60252781 15.78357424 135.44584044 15.77174314 132.2890625 15.76171875 C131.20108746 15.75764322 130.11311241 15.7535677 128.99216843 15.74936867 C123.23892158 15.72860776 117.48569792 15.71426032 111.73242188 15.70483398 C105.82280138 15.69375834 99.91355616 15.65931584 94.00406837 15.61966228 C89.42785992 15.59341527 84.8517402 15.58513524 80.2754631 15.58155251 C78.09796982 15.57671174 75.92047981 15.56517036 73.74306107 15.54651451 C57.16081661 15.41320395 42.54915003 15.31676789 31 29 Z " transform="translate(0,0)" style="fill: #FEFEFE;"/><path d="M0 0 C2.20992932 0.0023901 4.41986071 0.00328855 6.62979126 0.0027771 C11.24421051 0.00589076 15.85831594 0.02234234 20.47265625 0.04931641 C26.34830863 0.08325329 32.22361677 0.09094499 38.0993557 0.08942604 C42.65851039 0.08997348 47.21759184 0.10100079 51.77672195 0.11542892 C53.9413663 0.12173427 56.10601883 0.12572091 58.27067184 0.12721634 C99.69895535 0.18718067 99.69895535 0.18718067 112.1640625 12.4609375 C121.02437037 22.9523475 121.60866724 34.35840246 121.55224609 47.56811523 C121.55631808 49.17734126 121.56166346 50.78656448 121.56817627 52.39578247 C121.5817823 56.74090217 121.57657885 61.08580673 121.56703901 65.4309299 C121.55940614 69.99416577 121.56649818 74.55738408 121.57119751 79.12062073 C121.57664509 86.78267702 121.56949027 94.44464638 121.55517578 102.10668945 C121.53885703 110.94313736 121.54413617 119.77937749 121.560655 128.61582035 C121.57430533 136.22464149 121.57617206 143.83340037 121.56833899 151.44222981 C121.56368117 155.97693187 121.56298512 160.51153656 121.57294846 165.04623222 C121.58166744 169.31206906 121.57550696 173.57764025 121.55826569 177.84344864 C121.55432677 179.40140023 121.55538993 180.9593745 121.56205368 182.51731682 C121.61931663 197.27505695 119.69620975 209.45005629 109.1640625 220.4609375 C101.23900479 226.59590542 92.31353945 228.82585395 82.47265625 229.63671875 C81.11157997 229.75639763 81.11157997 229.75639763 79.7230072 229.87849426 C69.5590987 230.69933987 59.41669747 230.72363391 49.2265625 230.6484375 C47.20410262 230.63948692 45.18164163 230.63078463 43.15917969 230.62231445 C37.8976137 230.5949919 32.63640857 230.54883845 27.37506104 230.49414062 C24.14768518 230.46076815 20.92028695 230.43155609 17.69287109 230.40234375 C12.43584493 230.35145686 7.17939503 230.28097823 1.92282104 230.19546509 C-0.06171512 230.16444633 -2.04632221 230.13763973 -4.03097534 230.11532593 C-19.91372943 229.92413038 -33.97928799 229.15570773 -45.9765625 217.35546875 C-55.61728664 205.91217223 -54.98744669 191.41664661 -55.01293945 177.23925781 C-55.01921378 175.70091604 -55.02586142 174.16257575 -55.03285217 172.62423706 C-55.05377468 167.59585604 -55.0642415 162.56747511 -55.07421875 157.5390625 C-55.07827033 155.80084976 -55.08238736 154.06263717 -55.08656883 152.32442474 C-55.1055923 144.15734566 -55.11983085 135.99027547 -55.1281808 127.82317853 C-55.13795139 118.42450831 -55.16427823 109.02607371 -55.20468169 99.62748647 C-55.23491616 92.34227026 -55.24965649 85.05712136 -55.25296181 77.77184367 C-55.25530329 73.42983297 -55.26414609 69.08807479 -55.28942299 64.7461319 C-55.31283866 60.65840263 -55.31688332 56.57108985 -55.30666161 52.4833107 C-55.30616945 50.99187706 -55.31239432 49.50042193 -55.32621765 48.00905228 C-55.45115912 33.71821513 -52.35813043 21.26220778 -42.90625 10.203125 C-31.16095319 -1.45612568 -15.3447522 -0.11031165 0 0 Z M-42.8359375 19.4609375 C-47.4549603 25.73064556 -49.08302073 32.61621571 -49.09663391 40.30291748 C-49.10045946 40.95450561 -49.10428501 41.60609374 -49.10822648 42.27742696 C-49.11847102 44.44122042 -49.11458076 46.60474427 -49.1105957 48.76855469 C-49.11494703 50.32807661 -49.12013158 51.8875964 -49.12608337 53.44711304 C-49.1394421 57.67046712 -49.14005534 61.89373154 -49.13752007 66.11710262 C-49.13644784 69.65056105 -49.14134037 73.18400153 -49.1461255 76.7174561 C-49.15721072 85.05969802 -49.15766419 93.40189491 -49.15161133 101.74414062 C-49.14557709 110.3300146 -49.15787081 118.91572448 -49.1791814 127.50157046 C-49.19683974 134.88951874 -49.20279194 142.27741499 -49.19954365 149.66538358 C-49.19773677 154.07047314 -49.20030695 158.47544573 -49.21425819 162.88051605 C-49.22690033 167.02728852 -49.22483255 171.17380683 -49.21184731 175.32057571 C-49.20949548 176.83499109 -49.21216569 178.3494247 -49.22047043 179.86381912 C-49.29084629 193.70475603 -47.4208526 205.45028648 -38.27734375 216.3125 C-30.9502903 223.44627387 -20.39824543 223.91008269 -10.69580078 223.86499023 C-9.64218353 223.87185349 -8.58856628 223.87871674 -7.50302124 223.88578796 C-4.05395657 223.90394259 -0.60535175 223.90023436 2.84375 223.89453125 C5.26311387 223.89909864 7.68247644 223.90440587 10.10183716 223.91041565 C15.16023038 223.91932468 20.21846553 223.91694891 25.27685547 223.90698242 C31.73132057 223.89549906 38.18523805 223.91570663 44.63963127 223.94489956 C49.63277604 223.96332245 54.62579107 223.96295688 59.61896133 223.95726204 C61.99739474 223.95710955 64.37583735 223.96309318 66.75423813 223.97555351 C89.31433072 224.53637837 89.31433072 224.53637837 108.35546875 213.73828125 C114.57431942 205.90763343 115.32837857 196.3736439 115.27758789 186.68969727 C115.27780693 185.57625694 115.27780693 185.57625694 115.2780304 184.44032288 C115.27733924 182.01096574 115.26958453 179.58168733 115.26171875 177.15234375 C115.25985173 175.45841005 115.25842917 173.76447581 115.25743103 172.07054138 C115.25362818 167.63020312 115.24381712 163.189898 115.23272705 158.74957275 C115.22246477 154.21130827 115.21792312 149.67303839 115.21289062 145.13476562 C115.2021927 136.24347509 115.1851433 127.35220906 115.1640625 118.4609375 C110.41333334 118.57952461 105.66279892 118.70379498 100.91235352 118.83325195 C99.29748539 118.87646833 97.68257548 118.91815239 96.06762695 118.95825195 C93.74157133 119.01627798 91.41572346 119.07987779 89.08984375 119.14453125 C88.37194168 119.16124374 87.65403961 119.17795624 86.91438293 119.19517517 C83.21632664 119.30359135 79.77202055 119.65991235 76.1640625 120.4609375 C73.37351987 120.67505328 70.59483781 120.8545428 67.80078125 120.99609375 C66.61280693 121.06055946 66.61280693 121.06055946 65.40083313 121.12632751 C62.88457786 121.26209417 60.36809066 121.39283683 57.8515625 121.5234375 C56.13995618 121.61490232 54.42836738 121.70669559 52.71679688 121.79882812 C48.53274539 122.02333543 44.34847874 122.24333899 40.1640625 122.4609375 C40.19024658 123.46995117 40.21643066 124.47896484 40.2434082 125.51855469 C40.33402034 129.26800292 40.39135026 133.01735478 40.4387207 136.76757812 C40.46384022 138.38948855 40.49794278 140.01128604 40.54125977 141.6328125 C40.60203103 143.96642921 40.63029544 146.29854798 40.65234375 148.6328125 C40.67815018 149.35587585 40.7039566 150.07893921 40.73054504 150.82391357 C40.73168945 152.88574219 40.73168945 152.88574219 40.1640625 156.4609375 C37.63354492 158.82519531 37.63354492 158.82519531 35.1640625 160.4609375 C35.1640625 161.1209375 35.1640625 161.7809375 35.1640625 162.4609375 C32.5240625 162.1309375 29.8840625 161.8009375 27.1640625 161.4609375 C26.8546875 160.6565625 26.5453125 159.8521875 26.2265625 159.0234375 C25.40070905 156.57013345 25.40070905 156.57013345 24.1640625 155.4609375 C24.01864434 153.94547789 23.93685778 152.42380469 23.8828125 150.90234375 C23.82673828 149.48598633 23.82673828 149.48598633 23.76953125 148.04101562 C23.73472656 147.04521484 23.69992188 146.04941406 23.6640625 145.0234375 C23.38380892 136.98900921 23.38380892 136.98900921 22.64453125 128.98828125 C21.83442519 121.40843411 21.97806162 113.7677946 21.97875977 106.15380859 C21.97654511 103.43962549 21.95825704 100.72583171 21.93945312 98.01171875 C21.9365237 96.28645971 21.93453589 94.56119876 21.93359375 92.8359375 C21.92640823 92.02455322 21.91922272 91.21316895 21.91181946 90.37719727 C21.93520061 84.68979939 21.93520061 84.68979939 24.1640625 82.4609375 C31.46841033 81.99716938 31.46841033 81.99716938 35.1640625 84.4609375 C37.26311664 91.10794228 37.52150269 97.77310915 37.73486328 104.69555664 C37.74658341 109.04242217 37.74658341 109.04242217 40.1640625 112.4609375 C43.16379292 112.70204318 46.03629592 112.79131917 49.0390625 112.7734375 C50.45481567 112.76932861 50.45481567 112.76932861 51.89916992 112.76513672 C61.4562554 112.63470038 70.95715757 111.88876547 80.4765625 111.0859375 C81.22621277 111.02290436 81.97586304 110.95987122 82.74822998 110.89492798 C93.58276184 109.97051271 104.36812228 108.75099259 115.1640625 107.4609375 C115.23382408 97.98528018 115.28700584 88.50971239 115.31949902 79.03385353 C115.33510054 74.63299052 115.35623702 70.23230428 115.39038086 65.83154297 C115.42317235 61.57807065 115.4409569 57.32476749 115.44869423 53.07117844 C115.45420245 51.45500402 115.46495792 49.83883801 115.48125267 48.22273636 C115.60531529 35.39876216 114.64551686 24.68486887 106.1640625 14.4609375 C94.86330802 4.26269565 77.7988256 5.90151079 63.71484375 6 C61.44809576 6.00238914 59.18134575 6.00328875 56.91459656 6.0027771 C52.18504271 6.00589022 47.45579518 6.02234355 42.72631836 6.04931641 C36.68426736 6.08335211 30.6425509 6.0909423 24.60041523 6.08942604 C19.9273717 6.08997145 15.25440029 6.10096507 10.58138084 6.11542892 C8.353991 6.1217614 6.12659306 6.12572744 3.89919472 6.12721634 C0.78202182 6.131584 -2.33480637 6.14915729 -5.4519043 6.17041016 C-6.81202888 6.1690506 -6.81202888 6.1690506 -8.19963074 6.16766357 C-21.24440586 6.29680618 -33.73913817 9.5393617 -42.8359375 19.4609375 Z " transform="translate(76.8359375,15.5390625)" style="fill: #262726;"/><path d="M0 0 C-0.66 1.32 -1.32 2.64 -2 4 C-2.66 4 -3.32 4 -4 4 C-4 16.54 -4 29.08 -4 42 C-4.33 42 -4.66 42 -5 42 C-5.07411371 36.50076251 -5.12858464 31.00181521 -5.16479492 25.50219727 C-5.17988873 23.63105201 -5.20036589 21.75994217 -5.22631836 19.88891602 C-5.26267593 17.20059474 -5.27972015 14.51274087 -5.29296875 11.82421875 C-5.30845261 10.98662521 -5.32393646 10.14903168 -5.33988953 9.28605652 C-5.34159036 3.42691049 -5.34159036 3.42691049 -3.60371399 1.25495911 C-2 0 -2 0 0 0 Z " transform="translate(103,97)" style="fill: #4F6552;"/></svg>